<svg width="363" height="384" viewBox="0 0 363 384" fill="none" xmlns="http://www.w3.org/2000/svg">
<g opacity="0.2">
<path d="M166.933 31.1194C143.043 33.7733 131.374 55.3286 142.353 77.7206C153.473 100.392 171.958 118.646 182.549 142.017C198.702 177.69 215.736 212.631 214.96 252.669C214.481 276.763 207.767 298.394 193.661 318.603C166.615 357.318 143.529 352.372 112.912 317.531C84.8964 285.628 83.0528 244.274 83.2692 204.519C83.5011 160.145 91.0519 117.085 116.927 78.6731C122.503 70.412 123.969 59.5247 126.974 49.7421C128.86 43.5862 129.355 36.943 131.864 31.04C136.34 20.4254 140.847 8.69668 154.572 6.57975C168.585 4.42582 164.972 20.9885 173.673 24.9815C171.413 27.0311 169.193 29.0698 166.933 31.1194Z" fill="#004B70"/>
<path d="M193.601 56.6342C223.192 87.6978 243.466 124.273 259.151 163.01C267.311 183.141 274.036 203.924 276.294 226.007C280.917 271.398 266.976 307.678 226.736 333.565C218.709 338.74 209.92 339.79 204.008 335.578C196.33 330.133 204.99 324.251 208.343 319.092C221.481 298.767 223.705 277.358 224.105 253.052C224.474 229.86 220.908 208.968 215.3 187.153C212.257 175.344 205.327 165.928 200.118 155.59C183.829 123.335 188.673 90.2938 193.06 57.0602L193.612 56.6737L193.601 56.6342Z" fill="#004B70"/>
</g>
</svg>
